<svg data-name="Layer 1" xmlns="http://www.w3.org/2000/svg" width="378" height="190.92"><path d="M18.5 7.5H.5m12-6l7 6-7 6" fill="none" stroke="#fff" stroke-linecap="round" stroke-linejoin="round"/><path d="M18.5 27.5H.5m12-6l7 6-7 6" fill="none" stroke="#000" stroke-linecap="round" stroke-linejoin="round"/><path d="M18.5 47.5H.5m12-6l7 6-7 6" fill="none" stroke="#bed633" stroke-linecap="round" stroke-linejoin="round"/><path d="M7.5 78.5v-16m6 10l-6 7-6-7" fill="none" stroke="#fff" stroke-linecap="round" stroke-linejoin="round"/><path d="M7.5 108.5v-16m6 10l-6 7-6-7" fill="none" stroke="#000" stroke-linecap="round" stroke-linejoin="round"/><path d="M7.5 138.5v-16m6 10l-6 7-6-7" fill="none" stroke="#bed633" stroke-linecap="round" stroke-linejoin="round"/><path d="M45.5 21.3V6.9m4.8 9.6l-4.8 5.6-4.8-5.6m2-4h-3.2V.5h12v12h-3.2" fill="none" stroke="#fff" stroke-linecap="round" stroke-linejoin="round"/><path d="M45.5 61.3V46.9m4.8 9.6l-4.8 5.6-4.8-5.6m2-4h-3.2v-12h12v12h-3.2" fill="none" stroke="#000" stroke-linecap="round" stroke-linejoin="round"/><path d="M45.5 101.3V86.9m4.8 9.6l-4.8 5.6-4.8-5.6m2-4h-3.2v-12h12v12h-3.2" fill="none" stroke="#bed633" stroke-linecap="round" stroke-linejoin="round"/><path d="M69.5 2.5h18v17h-18zm5-2v4m8-4v4" fill="none" stroke="#fff" stroke-linecap="round" stroke-linejoin="round"/><g fill="#fff"><circle cx="74" cy="9" r="1"/><circle cx="77" cy="9" r="1"/><circle cx="80" cy="9" r="1"/><circle cx="83" cy="9" r="1"/><circle cx="74" cy="12" r="1"/><circle cx="77" cy="12" r="1"/><circle cx="80" cy="12" r="1"/><circle cx="83" cy="12" r="1"/><circle cx="74" cy="15" r="1"/><circle cx="77" cy="15" r="1"/><circle cx="80" cy="15" r="1"/><circle cx="83" cy="15" r="1"/></g><path d="M69.5 42.5h18v17h-18zm5-2v4m8-4v4" fill="none" stroke="#000" stroke-linecap="round" stroke-linejoin="round"/><circle cx="74" cy="49" r="1"/><circle cx="77" cy="49" r="1"/><circle cx="80" cy="49" r="1"/><circle cx="83" cy="49" r="1"/><circle cx="74" cy="52" r="1"/><circle cx="77" cy="52" r="1"/><circle cx="80" cy="52" r="1"/><circle cx="83" cy="52" r="1"/><circle cx="74" cy="55" r="1"/><circle cx="77" cy="55" r="1"/><circle cx="80" cy="55" r="1"/><circle cx="83" cy="55" r="1"/><path d="M69.5 82.5h18v17h-18zm5-2v4m8-4v4" fill="none" stroke="#bfd917" stroke-linecap="round" stroke-linejoin="round"/><g fill="#bfd917"><circle cx="74" cy="89" r="1"/><circle cx="77" cy="89" r="1"/><circle cx="80" cy="89" r="1"/><circle cx="83" cy="89" r="1"/><circle cx="74" cy="92" r="1"/><circle cx="77" cy="92" r="1"/><circle cx="80" cy="92" r="1"/><circle cx="83" cy="92" r="1"/><circle cx="74" cy="95" r="1"/><circle cx="77" cy="95" r="1"/><circle cx="80" cy="95" r="1"/><circle cx="83" cy="95" r="1"/></g><path d="M121.5.5l-12 12m12 0l-12-12" fill="none" stroke="#fff" stroke-linecap="round" stroke-linejoin="round"/><path d="M121.5 40.5l-12 12m12 0l-12-12" fill="none" stroke="#000" stroke-linecap="round" stroke-linejoin="round"/><path d="M121.5 80.5l-12 12m12 0l-12-12" fill="none" stroke="#bfd917" stroke-linecap="round" stroke-linejoin="round"/><path d="M253 31.33V5m8 18.33l-8 9.34-8-9.34m39-17v26.34m-8-18.34L284 5l8 9.33" fill="none" stroke="#000" stroke-linecap="round" stroke-linejoin="round" stroke-width="2"/><path d="M50.25 172.67c0 .6.24.53.24.76s-.12.23-.32.33a14.85 14.85 0 0 1-5.2 1.07c-4 0-6.37-2.72-6.37-6.6 0-4.6 3.84-7.23 8.14-7.23a8.26 8.26 0 0 1 3.69.78c-.28 1.6-.3 1.71-.47 1.71s-.25 0-.25-.37c0-.52-1.17-1.38-3.24-1.38-1.62 0-6 .74-6 6.29 0 3.28 1.87 6.06 5.36 6.06a5.79 5.79 0 0 0 2.67-.6v-1.4c0-2.5-.1-3.06-.53-3.06h-1.48v-.61h5v.58h-.9c-.23 0-.37.09-.37.27zm4.89-7.77c0-2.11 0-2.89-.58-2.89h-1.21v-.62h5.75c1.81 0 4.13.92 4.13 3.53 0 1.85-1.39 3-3.2 3.31 3.39 4.91 4.09 5.59 4.68 5.59h.52v.62h-2.37c-.47 0-.7 0-4.46-5.92h-1.52v2.4c0 2.12 0 2.9.58 2.9h1.17v.62h-4.77v-.62h1c.23 0 .31-.14.31-.33zm2.77 3c1.77 0 3.58-.63 3.58-2.65a3 3 0 0 0-3.09-3.12h-1c-.19 0-.48 0-.48.29v5.48zm9.9-3c0-2.11 0-2.89-.57-2.89H66v-.62h10.32c-.19 1.81-.25 1.87-.43 1.91s-.21-.1-.25-.37-.41-.8-3.65-.8H70c-.31 0-.41.16-.41.37v4.5h2.38c2.12 0 2.76-.08 2.76-.7v-.8h.55v3.47h-.58v-.72c0-.55-.21-.57-2.55-.57h-2.59v3.51c0 2.55.23 2.55.84 2.55h1.38c3.49 0 4.29-.52 4.64-1.09.06-.1.11-.23.25-.23s.16.13.16.23a16.79 16.79 0 0 1-.51 1.83h-9.78v-.62h1c.22 0 .3-.14.3-.33zm12.19 0c0-2.11 0-2.89-.58-2.89h-1.21v-.62H88.5c-.18 1.81-.24 1.87-.43 1.91s-.2-.1-.25-.37-.41-.8-3.65-.8h-2c-.3 0-.41.16-.41.37v4.5h2.39c2.11 0 2.75-.08 2.75-.7v-.8h.55v3.47h-.55v-.72c0-.55-.21-.57-2.55-.57h-2.61v3.51c0 2.55.23 2.55.85 2.55H84c3.49 0 4.3-.52 4.65-1.09.06-.1.1-.23.24-.23s.17.13.17.23a17.78 17.78 0 0 1-.52 1.83h-9.82v-.62h1c.23 0 .31-.14.31-.33zm22.27 6.66v-7.4c0-.94 0-2.15-.66-2.15h-1.09v-.62h3.76v.61h-.76c-.24 0-.47.1-.47.41v11.87c0 .19 0 .33-.16.33s-.15-.06-.29-.22l-.25-.29-8.85-10.72v8.28c0 1 0 2.16.66 2.16h1.04v.62h-3.76v-.62h.76c.25 0 .47-.1.47-.41v-9c0-1.66-.18-2.36-1.15-2.36h-.63v-.62h3zm3.08-10.17h4.44v.61h-1.11c-.13 0-.21 0-.21.12s2.18 5.34 3.91 9.51l2.69-7.19c-.78-2.32-1.21-2.44-1.54-2.44h-.7v-.62h4.44v.62h-1.11c-.13 0-.21 0-.21.12s2.2 5.42 3.8 9.66c1.62-4.19 3.31-8.76 3.31-9.43 0-.29-.16-.35-.51-.35h-1.18v-.62h3.91v.62h-1c-.12 0-.16 0-.24.22l-4.4 11.88c-.16.45-.25.72-.45.72s-.21-.17-.35-.54l-3.45-8.89-3.15 8.71c-.16.45-.24.72-.45.72s-.2-.17-.35-.54l-4.15-10.54c-.7-1.66-.82-1.74-1.5-1.74h-.49zm25 9.53c0 2.12 0 2.9.58 2.9h1.17v.62h-4.77v-.62h1a.29.29 0 0 0 .31-.33v-8.59c0-2.11 0-2.89-.58-2.89h-1.21v-.62h4.77v.61h-.93a.29.29 0 0 0-.31.33zm14.08-7.5c-.19 0-.21-.08-.25-.39-.1-.74-1.81-1.29-3-1.29-3.78 0-6 2.88-6 6.45a5.6 5.6 0 0 0 5.42 5.9c1.85 0 3.89-.85 4-2 0-.16 0-.37.27-.37s.2.15.2.27 0 .49-.12 1.79a11.15 11.15 0 0 1-4.72 1.05c-4.09 0-6.95-2.14-6.95-6.41S137 161 141.26 161a9.71 9.71 0 0 1 3.54.7c-.15 1.66-.17 1.72-.37 1.72zm5.57 4.28v3.22c0 2.12 0 2.9.58 2.9h1.17v.62H147v-.62h1c.23 0 .31-.14.31-.33v-8.59c0-2.11 0-2.89-.58-2.89h-1.21v-.62h4.77v.61h-.93a.29.29 0 0 0-.31.33V167h6.76v-2.1c0-2.11 0-2.89-.57-2.89H155v-.62h4.76v.61h-.92c-.23 0-.31.14-.31.33v8.58c0 2.12 0 2.9.57 2.9h1.18v.62h-4.77v-.62h1c.23 0 .31-.14.31-.33v-5.78zM41.69 185.57a20.23 20.23 0 0 0-1.19 3.74c0 .44.21.54.51.54h1.3v.61h-4.15v-.61h.41c.31 0 .62-.06.74-.33l5.2-12.31c.51-.12 1.09-.26 1.21-.26a.19.19 0 0 1 .2.2c0 .27-.37.25-.37.64 0 .88 2.55 7.74 3.56 10.48.47 1.29.72 1.58 1.25 1.58H51v.61h-4.6v-.61h1.11c.14 0 .28-.06.28-.21s-.57-1.58-1.41-4.07zm2.57-6.2L42 184.84h4.09zm10.38.76c0 1.66 1.54 2.2 2.83 2.69 2.63 1 3.88 1.81 3.88 4 0 1.79-1.56 4-5 4a9.47 9.47 0 0 1-3.2-.57c-.23-1.27-.31-1.71-.31-1.89a.23.23 0 0 1 .25-.25c.2 0 .26.21.3.39.29 1.15 2.2 1.59 3.21 1.59 1.64 0 3.33-.83 3.33-2.68 0-1.58-1.19-2.28-3.23-3-.92-.32-3.43-1.13-3.43-3.63S55.79 177 58 177a5.52 5.52 0 0 1 2.33.39c0 .49.06 1 .06 1.5 0 .14-.06.27-.23.27s-.22-.17-.25-.31c-.14-.89-1.8-1.11-2.46-1.11a2.55 2.55 0 0 0-2.81 2.39zm10.74 0c0 1.66 1.54 2.2 2.84 2.69 2.63 1 3.88 1.81 3.88 4 0 1.79-1.56 4-4.95 4a9.52 9.52 0 0 1-3.21-.57c-.22-1.27-.31-1.71-.31-1.89a.24.24 0 0 1 .25-.25c.21 0 .27.21.31.39.29 1.15 2.2 1.59 3.2 1.59 1.65 0 3.33-.83 3.33-2.68 0-1.58-1.19-2.28-3.22-3-.93-.32-3.43-1.13-3.43-3.63s2.46-3.78 4.66-3.78a5.5 5.5 0 0 1 2.32.39c0 .49.06 1 .06 1.5 0 .14-.06.27-.22.27s-.23-.17-.25-.31c-.14-.89-1.81-1.11-2.47-1.11a2.56 2.56 0 0 0-2.79 2.39zm9.12 4.01a6.81 6.81 0 0 1 6.84-7.14c4.13 0 6.48 2.71 6.48 6.72a6.81 6.81 0 0 1-6.85 7.1c-4.13.03-6.47-2.68-6.47-6.68zm1.75-.58c0 4.64 2.75 6.62 5.18 6.62 2.77 0 4.64-2.12 4.64-5.86 0-4.64-2.75-6.61-5.18-6.61-2.77 0-4.64 2.11-4.64 5.85zm25.19-4.11c-.19 0-.21-.08-.25-.39-.1-.74-1.81-1.29-3-1.29-3.78 0-6 2.87-6 6.45a5.6 5.6 0 0 0 5.43 5.9c1.84 0 3.88-.85 4-2 0-.16 0-.37.27-.37s.2.15.2.27 0 .49-.12 1.79a11.14 11.14 0 0 1-4.72 1c-4.09 0-7-2.13-7-6.4s3.68-7.42 8-7.42a9.71 9.71 0 0 1 3.54.7c-.13 1.7-.15 1.76-.35 1.76zm7.04 7.55c0 2.12 0 2.9.58 2.9h1.17v.61h-4.77v-.61h1a.29.29 0 0 0 .31-.33v-8.59c0-2.11 0-2.9-.58-2.9H105v-.61h4.77v.53h-.93a.29.29 0 0 0-.31.33zm7.03-1.43a20.23 20.23 0 0 0-1.19 3.74c0 .44.2.54.51.54h1.3v.61H112v-.61h.41a.74.74 0 0 0 .74-.33l5.19-12.31c.52-.12 1.09-.26 1.22-.26a.19.19 0 0 1 .2.2c0 .27-.37.25-.37.64 0 .88 2.55 7.74 3.56 10.48.47 1.29.72 1.58 1.25 1.58h.62v.61h-4.61v-.61h1.11c.15 0 .29-.06.29-.21s-.57-1.58-1.42-4.07zm2.57-6.2l-2.28 5.47h4.09zm13.19 7.63c0 2.12 0 2.9.57 2.9h1.59v.61h-5.76v-.61h1.54a.29.29 0 0 0 .31-.33v-11.41H129c-2.41 0-3.58.43-3.78 1.05 0 .12-.13.28-.29.28s-.23-.06-.23-.2a18.31 18.31 0 0 1 .58-1.87h10.22a18.31 18.31 0 0 1 .58 1.87c0 .14-.11.2-.23.2s-.25-.16-.29-.28c-.2-.62-1.37-1.05-3.78-1.05h-.51zm8.61-6.07c0-2.11 0-2.9-.58-2.9h-1.21v-.61h10.29c-.18 1.81-.24 1.87-.43 1.91s-.2-.1-.25-.37-.41-.8-3.65-.8h-2c-.3 0-.41.16-.41.37V183H144c2.11 0 2.75-.09 2.75-.7v-.8h.55v3.5h-.55v-.72c0-.56-.21-.58-2.55-.58h-2.59v3.52c0 2.55.23 2.55.84 2.55h1.38c3.49 0 4.3-.52 4.64-1.09.07-.11.11-.23.25-.23s.17.12.17.23a17.15 17.15 0 0 1-.52 1.82h-9.77v-.61h1a.29.29 0 0 0 .31-.33zm13.21-.8c0 1.66 1.54 2.2 2.83 2.69 2.63 1 3.88 1.81 3.88 4 0 1.79-1.56 4-5 4a9.47 9.47 0 0 1-3.2-.57c-.23-1.27-.31-1.71-.31-1.89a.23.23 0 0 1 .25-.25c.2 0 .26.21.3.39.29 1.15 2.2 1.59 3.21 1.59 1.64 0 3.33-.83 3.33-2.68 0-1.58-1.19-2.28-3.23-3-.92-.32-3.43-1.13-3.43-3.63s2.47-3.76 4.67-3.76a5.5 5.5 0 0 1 2.32.39c0 .49.06 1 .06 1.5 0 .14-.06.27-.23.27s-.22-.17-.24-.31c-.15-.89-1.81-1.11-2.47-1.11a2.55 2.55 0 0 0-2.74 2.37z" fill="#fff"/><path d="M161 41l-8 9.4-8-9.4m30 5.4l8-9.4 8 9.4" fill="none" stroke="#000" stroke-linecap="round" stroke-linejoin="round"/><path d="M9.15 181.53h11.31v-3.36h-7.27V174H24.6v11.64H5V166.5h24.67v-1.83a3.42 3.42 0 0 0-3.42-3.42H3.42A3.42 3.42 0 0 0 0 164.67v22.83a3.42 3.42 0 0 0 3.42 3.42h22.83a3.42 3.42 0 0 0 3.42-3.42v-16.86H9.15z" fill="#fff"/><path d="M317.84 27.37a.57.57 0 0 0-.87 0l-3.37 3.55V14.56a.55.55 0 1 0-1.09 0v16.59l-3.59-3.78a.52.52 0 0 0-.76 0 .56.56 0 0 0 0 .78l4.46 4.68a.5.5 0 0 0 .76 0l4.46-4.68a.56.56 0 0 0 0-.78zm10.32-7.74a.57.57 0 0 0 .87 0l3.37-3.55v16.36a.55.55 0 1 0 1.09 0V15.85l3.59 3.78a.52.52 0 0 0 .76 0 .56.56 0 0 0 0-.78l-4.46-4.68a.5.5 0 0 0-.76 0l-4.46 4.68a.56.56 0 0 0 0 .78z"/><path d="M357.84 27.37a.57.57 0 0 0-.87 0l-3.37 3.55V14.56a.55.55 0 1 0-1.09 0v16.59l-3.59-3.78a.52.52 0 0 0-.76 0 .56.56 0 0 0 0 .78l4.46 4.68a.5.5 0 0 0 .76 0l4.46-4.68a.56.56 0 0 0 0-.78zm10.32-7.74a.57.57 0 0 0 .87 0l3.37-3.55v16.36a.55.55 0 1 0 1.09 0V15.85l3.59 3.78a.52.52 0 0 0 .76 0 .56.56 0 0 0 0-.78l-4.46-4.68a.5.5 0 0 0-.76 0l-4.46 4.68a.56.56 0 0 0 0 .78z" fill="#fff"/></svg>