<svg id="Layer_1" xmlns="http://www.w3.org/2000/svg" width="156" height="168"><style>.st0{fill:#fff}.st1{fill:none}.st6{font-family:&apos;LucidaGrande&apos;,Helvetica,Arial,sans-serif}.st7{font-size:13px}</style><path class="st0" d="M-1 0h158v168H-1z"/><path class="st1" d="M-10 0h176v180H-10z"/><path class="st1" d="M-10 0h176v180H-10z"/><g stroke-linejoin="round"><path d="M45.1 4.3C84.1-13.9 130.5 3 148.7 42c9.1 19.5 9.7 41.8 1.8 61.8l-36.2-14.4c8-20-1.8-42.7-21.8-50.7-10-4-21.2-3.7-30.9.9L45.1 4.3z" stroke="#000" transform="translate(0 15)"/><path d="M150.4 103.9c-16 40-61.4 59.5-101.4 43.5-6-2.4-11.7-5.6-17-9.4l23-31.5c17.4 12.7 41.8 8.9 54.5-8.5 1.9-2.6 3.5-5.5 4.7-8.5l36.2 14.4z" fill="#4a7628" stroke="#4a7628" transform="translate(0 15)"/><path d="M31.9 137.9C-1.3 113.6-9.9 67.7 12.3 33l32.9 21c-11.1 17.3-6.8 40.3 9.8 52.5l-23.1 31.4z" fill="#bfd916" stroke="#bfd916" transform="translate(0 15)"/><path d="M12.3 32.9c8-12.4 19.3-22.4 32.7-28.6l16.5 35.3c-6.7 3.1-12.3 8.1-16.3 14.3l-32.9-21z" fill="#6d6d6d" stroke="#6d6d6d" transform="translate(0 15)"/></g><text transform="translate(105.006 53.98)" class="st0 st6 st7">38%</text><text transform="translate(81.006 155.98)" class="st0 st6 st7">29%</text><text transform="translate(5.006 108.98)" class="st0 st6 st7">24%</text><text transform="translate(28.006 52.98)" class="st0 st6 st7">9%</text></svg>