<svg id="Layer_1" xmlns="http://www.w3.org/2000/svg" width="150" height="168"><style>.st0{fill:#fff}.st1{fill:none}.st6{font-family:&apos;LucidaGrande&apos;,Helvetica,Arial,sans-serif}.st7{font-size:13px}</style><path class="st0" d="M-1 0h152v168H-1z"/><path class="st1" d="M-32.5 8.1h215v170h-215z"/><path class="st1" d="M-32.5 8.1h215v170h-215z"/><g stroke-linejoin="round"><path d="M43.3 10.1C80.9-7.4 125.5 8.8 143 46.4c7.6 16.3 9.1 34.9 4.2 52.2l-36.1-10.3c5.7-19.9-5.9-40.7-25.8-46.3-8.7-2.5-17.9-1.7-26.1 2.1l-15.9-34z" stroke="#000" transform="translate(0 15)"/><path d="M147.1 98.6c-9.5 33.2-40.5 55.7-75 54.4l1.4-37.5c17.3.7 32.8-10.6 37.5-27.2l36.1 10.3z" fill="#4a7628" stroke="#4a7628" transform="translate(0 15)"/><path d="M72.1 153c-41.4-1.6-73.6-36.5-72-77.9.9-23 12.3-44.3 30.9-57.8l22 30.4c-16.8 12.2-20.5 35.6-8.3 52.4 6.8 9.3 17.4 15 28.9 15.5L72.1 153z" fill="#bfd916" stroke="#bfd916" transform="translate(0 15)"/><path d="M31 17.3c3.8-2.8 7.9-5.2 12.2-7.2l15.9 34c-2.1 1-4.2 2.2-6.1 3.6L31 17.3z" fill="#6d6d6d" stroke="#6d6d6d" transform="translate(0 15)"/></g><text transform="translate(98.501 58.055)" class="st0 st6 st7">36%</text><text transform="translate(94.501 147.055)" class="st0 st6 st7">21%</text><text transform="translate(6.501 117.055)" class="st0 st6 st7">39%</text><text transform="translate(22.501 15.055)" class="st6 st7">3%</text></svg>