<svg id="Layer_1" xmlns="http://www.w3.org/2000/svg" width="151" height="168"><style>.st0{fill:#fff}.st1{fill:none}.st6{font-family:&apos;LucidaGrande&apos;,Helvetica,Arial,sans-serif}.st7{font-size:13px}</style><path class="st0" d="M0 0h151.8v168.7H0z"/><path class="st1" d="M-32 8h216v170H-32z"/><path class="st1" d="M-32 8h216v170H-32z"/><g stroke-linejoin="round"><path d="M44.3 10C70.6-2.2 101.6 1.8 124 20.3l-24 28.8C88.8 39.9 73.3 37.9 60.2 44L44.3 10z" stroke="#000" transform="translate(0 15)"/><path d="M124 20.4c31.8 26.5 36.1 73.8 9.6 105.6S59.8 162.1 28 135.6C3 114.8-5.7 80.4 6.3 50.2l34.8 13.9c-7.7 19.2 1.7 41.1 20.9 48.7s41.1-1.7 48.7-20.9c6-15.1 1.6-32.3-10.8-42.7L124 20.4z" fill="#4a7628" stroke="#4a7628" transform="translate(0 15)"/><path d="M6.4 50.2c5.3-13.2 14.2-24.6 25.7-33l22 30.4c-5.8 4.2-10.2 9.9-12.9 16.5L6.4 50.2z" fill="#bfd916" stroke="#bfd916" transform="translate(0 15)"/><path d="M32.2 17.2c3.8-2.8 7.8-5.2 12-7.1l15.9 34c-2.1 1-4.1 2.2-6 3.5L32.2 17.2z" fill="#6d6d6d" stroke="#6d6d6d" transform="translate(0 15)"/></g><text transform="translate(70 44)" class="st0 st6 st7">18%</text><text transform="translate(76 156)" class="st0 st6 st7">70%</text><text transform="translate(21 66)" class="st0 st6 st7">9%</text><text transform="translate(23 15)" class="st6 st7">3%</text></svg>