<svg id="Layer_1" xmlns="http://www.w3.org/2000/svg" width="153" height="168"><style>.st0{fill:#fff}.st1{fill:none}.st6{font-family:&apos;LucidaGrande&apos;,Helvetica,Arial,sans-serif}.st7{font-size:13px}</style><path class="st0" d="M0 0h153v168H0z"/><path class="st1" d="M-29.5 5.5h215v170h-215z"/><path class="st1" d="M-29.5 5.5h215v170h-215z"/><g stroke-linejoin="round"><path d="M46.3 7.5c36.3-16.9 79.4-2.4 98 33L111.2 58c-9.3-17.7-30.9-25-49-16.5l-15.9-34z" stroke="#000" transform="translate(0 15)"/><path d="M144.4 40.6c19.3 36.7 5.2 82-31.5 101.3-6 3.1-12.3 5.5-18.9 6.9l-8-36.6c20.2-4.4 33.1-24.4 28.6-44.6-.7-3.3-1.9-6.5-3.4-9.5l33.2-17.5z" fill="#4a7628" stroke="#4a7628" transform="translate(0 15)"/><path d="M93.9 148.8c-40.5 8.8-80.4-16.9-89.2-57.4-5.6-25.7 2.7-52.5 21.9-70.6l25.7 27.3c-15.1 14.2-15.8 37.9-1.6 53 9 9.6 22.4 13.8 35.3 11l7.9 36.7z" fill="#bfd916" stroke="#bfd916" transform="translate(0 15)"/><path d="M26.7 20.8c5.8-5.4 12.4-9.9 19.5-13.2l15.9 34c-3.6 1.7-6.9 3.9-9.8 6.6L26.7 20.8z" fill="#6d6d6d" stroke="#6d6d6d" transform="translate(0 15)"/></g><text transform="translate(82.5 44.5)" class="st0 st6 st7">24%</text><text transform="translate(115.5 122.5)" class="st0 st6 st7">29%</text><text transform="translate(13.5 125.5)" class="st0 st6 st7">41%</text><text transform="translate(15.5 18.5)" class="st6 st7">5%</text></svg>