<svg id="Layer_1" xmlns="http://www.w3.org/2000/svg" width="155" height="168"><style>.st0{fill:#fff}.st1{fill:none}.st5{font-family:&apos;LucidaGrande&apos;,Helvetica,Arial,sans-serif}.st6{font-size:13px}</style><path class="st0" d="M0 0h155v168H0z"/><path class="st1" d="M-29.5 6h215v170h-215z"/><path class="st1" d="M-29.5 6h215v170h-215z"/><g stroke-linejoin="round"><path d="M46.3 8C83.9-9.5 128.5 6.8 146 44.3s1.3 82.2-36.3 99.7-82.2 1.3-99.7-36.3C7.4 102 5.4 96 4.3 89.8l36.9-6.9c3.8 20.4 23.4 33.8 43.8 29.9 20.4-3.8 33.8-23.4 29.9-43.8S91.4 35.3 71.1 39.1c-3.1.6-6.1 1.6-8.9 2.9L46.3 8z" stroke="#000" transform="translate(0 15)"/><path d="M4.3 89.8C-1 61.3 10.6 32.2 34.1 15.2l22 30.4c-11.8 8.5-17.6 23-14.9 37.3L4.3 89.8z" fill="#4a7628" stroke="#4a7628" transform="translate(0 15)"/><path d="M34.2 15.2c3.8-2.8 7.8-5.2 12-7.1l15.9 34c-2.1 1-4.1 2.2-6 3.5L34.2 15.2z" fill="#bfd916" stroke="#bfd916" transform="translate(0 15)"/></g><text transform="translate(114.5 125)" class="st0 st5 st6">79%</text><text transform="translate(11.5 78)" class="st0 st5 st6">18%</text><text transform="translate(25.5 13)" class="st5 st6">3%</text></svg>