<svg id="Layer_1" xmlns="http://www.w3.org/2000/svg" width="160" height="168"><style>.st0{fill:#fff}.st1{fill:none}.st6{font-family:&apos;LucidaGrande&apos;,Helvetica,Arial,sans-serif}.st7{font-size:13px}</style><path class="st0" d="M0 0h160v168H0z"/><path class="st1" d="M-8-2h176v180H-8z"/><path class="st1" d="M-8-2h176v180H-8z"/><g stroke-linejoin="round"><path d="M47 2.3C86.1-15.9 132.5 1 150.7 40c2.6 5.5 4.5 11.2 5.7 17.2l-38.2 7.9c-4.4-21.1-25-34.7-46.1-30.3-3 .6-5.8 1.6-8.6 2.8L47 2.3z" stroke="#000" transform="translate(0 15)"/><path d="M156.4 57.3c8.7 42.2-18.5 83.4-60.7 92.1-5.9 1.2-12 1.7-18 1.6l1.1-39c21.5.6 39.5-16.3 40.1-37.8.1-3-.2-6-.8-9l38.3-7.9z" fill="#4a7628" stroke="#4a7628" transform="translate(0 15)"/><path d="M77.6 151C34.6 149.7.7 113.7 2 70.6c.5-15.8 5.8-31.2 15.2-43.9l31.4 23.1c-12.8 17.3-9.1 41.8 8.2 54.5 6.4 4.7 14 7.4 22 7.6L77.6 151z" fill="#bfd916" stroke="#bfd916" transform="translate(0 15)"/><path d="M17.3 26.6C25 16.2 35.2 7.8 47 2.3l16.5 35.3c-5.9 2.8-11 6.9-14.8 12.2L17.3 26.6z" fill="#6d6d6d" stroke="#6d6d6d" transform="translate(0 15)"/></g><text transform="translate(93 42)" class="st0 st6 st7">29%</text><text transform="translate(112 135)" class="st0 st6 st7">29%</text><text transform="translate(12 122)" class="st0 st6 st7">35%</text><text transform="translate(32 50)" class="st0 st6 st7">8%</text></svg>