<svg id="Layer_1" xmlns="http://www.w3.org/2000/svg" width="153" height="169.5"><style>.st0{fill:#fff}.st1{fill:none}.st6{font-family:&apos;LucidaGrande&apos;,Helvetica,Arial,sans-serif}.st7{font-size:13px}</style><path class="st0" d="M0 0h153v169.5H0z"/><path class="st1" d="M-31 8h215v170H-31z"/><path class="st1" d="M-31 8h215v170H-31z"/><g stroke-linejoin="round"><path d="M44.8 10c21.7-10.1 47-9.3 68 2.3L94.6 45.2c-10.5-5.8-23.1-6.2-34-1.2L44.8 10z" stroke="#000" transform="translate(0 15)"/><path d="M112.8 12.4c36.2 20.1 49.3 65.7 29.3 101.9s-65.7 49.3-101.9 29.3c-24-13.2-38.8-38.5-38.7-65.8l37.5.1c0 20.7 16.7 37.5 37.4 37.6S114 98.8 114 78.1c0-13.7-7.4-26.3-19.3-32.9l18.1-32.8z" fill="#4a7628" stroke="#4a7628" transform="translate(0 15)"/><path d="M1.5 77.7c.1-19 7.4-37.3 20.5-51.2l27.3 25.7C42.7 59.2 39 68.3 39 77.9l-37.5-.2z" fill="#bfd916" stroke="#bfd916" transform="translate(0 15)"/><path d="M22 26.5c6.5-6.9 14.2-12.4 22.7-16.4l15.9 34c-4.3 2-8.1 4.8-11.4 8.2L22 26.5z" fill="#6d6d6d" stroke="#6d6d6d" transform="translate(0 15)"/></g><text transform="translate(65 43.991)" class="st0 st6 st7">15%</text><text transform="translate(92 149.991)" class="st0 st6 st7">67%</text><text transform="translate(10 79.991)" class="st0 st6 st7">12%</text><text transform="translate(14 20.991)" class="st6 st7">6%</text></svg>