<svg id="Layer_1" xmlns="http://www.w3.org/2000/svg" width="152.7" height="168"><style>.st0{fill:#fff}.st1{fill:none}.st6{font-family:&apos;LucidaGrande&apos;,Helvetica,Arial,sans-serif}.st7{font-size:13px}</style><path class="st0" d="M0 0h152.7v168H0z"/><path class="st1" d="M-31 6.7h215v170H-31z"/><path class="st1" d="M-31 6.7h215v170H-31z"/><g stroke-linejoin="round"><path d="M44.8 8.7C82.4-8.8 127 7.4 144.5 45c5.5 11.9 7.9 25 6.7 38.1l-37.4-3.2c1.8-20.6-13.5-38.8-34.1-40.6-6.5-.6-13.1.6-19.1 3.4l-15.8-34z" stroke="#000" transform="translate(0 15)"/><path d="M151.2 83.2c-3.6 41.3-40 71.8-81.2 68.2-3.5-.3-7.1-.9-10.5-1.7l8.5-36.5c20.2 4.7 40.3-7.8 45-28 .4-1.7.7-3.5.8-5.3l37.4 3.3z" fill="#4a7628" stroke="#4a7628" transform="translate(0 15)"/><path d="M59.4 149.7C19.1 140.2-6 99.9 3.5 59.6c4.1-17.5 14.4-33 29-43.6l22 30.4C37.7 58.5 34 81.9 46.1 98.7c5.3 7.3 13 12.4 21.8 14.5l-8.5 36.5z" fill="#bfd916" stroke="#bfd916" transform="translate(0 15)"/><path d="M32.5 15.9c3.8-2.8 7.9-5.2 12.2-7.2l15.9 34c-2.1 1-4.2 2.2-6.1 3.6l-22-30.4z" fill="#6d6d6d" stroke="#6d6d6d" transform="translate(0 15)"/></g><text transform="translate(95 52.667)" class="st0 st6 st7">33%</text><text transform="translate(96 145.667)" class="st0 st6 st7">27%</text><text transform="translate(7 110.667)" class="st0 st6 st7">36%</text><text transform="translate(24 13.667)" class="st6 st7">3%</text></svg>