<svg id="Layer_1" xmlns="http://www.w3.org/2000/svg" width="153.7" height="168"><style>.st0{fill:#fff}.st1{fill:none}.st6{font-family:&apos;LucidaGrande&apos;,Helvetica,Arial,sans-serif}.st7{font-size:13px}</style><path class="st0" d="M0 0h153.7v168H0z"/><path class="st1" d="M-31 6h216v170H-31z"/><path class="st1" d="M-31 6h216v170H-31z"/><g stroke-linejoin="round"><path d="M45.3 8c35.9-16.7 78.5-2.7 97.5 32l-32.9 18c-9.5-17.4-30.8-24.4-48.8-16L45.3 8z" stroke="#000" transform="translate(0 15)"/><path d="M142.9 40.1c19.8 36.4 6.4 81.9-30 101.7-1.3.7-2.7 1.4-4.1 2.1l-15.9-34c18.8-8.8 26.8-31.1 18.1-49.9-.3-.7-.7-1.4-1-2l32.9-17.9z" fill="#4a7628" stroke="#4a7628" transform="translate(0 15)"/><path d="M108.7 144c-37.5 17.5-82.2 1.3-99.7-36.2-11.5-24.8-8.7-53.9 7.4-76l30.3 22.1c-12.2 16.7-8.5 40.2 8.2 52.4 11 8.1 25.6 9.5 38 3.7l15.8 34z" fill="#bfd916" stroke="#bfd916" transform="translate(0 15)"/><path d="M16.5 31.7C23.9 21.5 33.8 13.4 45.3 8l15.9 34c-5.7 2.7-10.7 6.7-14.4 11.8L16.5 31.7z" fill="#6d6d6d" stroke="#6d6d6d" transform="translate(0 15)"/></g><text transform="translate(81 45)" class="st0 st6 st7">24%</text><text transform="translate(117 117)" class="st0 st6 st7">26%</text><text transform="translate(19 135)" class="st0 st6 st7">42%</text><text transform="translate(31 55)" class="st0 st6 st7">8%</text></svg>