<svg id="Layer_1" xmlns="http://www.w3.org/2000/svg" width="162" height="168"><style>.st0{fill:#fff}.st1{fill:none}.st5{font-family:&apos;LucidaGrande&apos;,Helvetica,Arial,sans-serif}.st6{font-size:13px}</style><path class="st0" d="M0 0h162v168H0z"/><path class="st1" d="M-22 6.3h215v170H-22z"/><path class="st1" d="M-22 6.3h215v170H-22z"/><g stroke-linejoin="round"><path d="M53.8 8.4C91.4-9.1 136 7.1 153.5 44.6s1.3 82.2-36.3 99.7C79.6 161.8 35 145.6 17.5 108c-10.8-23.2-9-50.4 4.8-72l31.6 20.2c-11.1 17.5-6 40.6 11.4 51.8s40.6 6 51.8-11.4c11.1-17.5 6-40.6-11.4-51.8-10.8-6.9-24.4-7.8-36-2.4l-15.9-34z" stroke="#000" transform="translate(0 15)"/><path d="M22.3 35.9c2.5-3.9 5.4-7.6 8.6-11l27.3 25.7c-1.6 1.7-3 3.5-4.3 5.5L22.3 35.9z" fill="#4a7628" stroke="#4a7628" transform="translate(0 15)"/><path d="M31 24.8C37.5 18 45.2 12.4 53.7 8.4l15.9 34c-4.3 2-8.1 4.8-11.4 8.2L31 24.8z" fill="#bfd916" stroke="#bfd916" transform="translate(0 15)"/></g><text transform="translate(109 142.333)" class="st0 st5 st6">91%</text><text transform="translate(0 43.333)" class="st5 st6">3%</text><text transform="translate(26 22.333)" class="st5 st6">6%</text></svg>