<svg id="Layer_1" xmlns="http://www.w3.org/2000/svg" width="153.3" height="168"><style>.st0{fill:#fff}.st1{fill:none}.st6{font-family:&apos;LucidaGrande&apos;,Helvetica,Arial,sans-serif}.st7{font-size:13px}</style><path class="st0" d="M0 0h153.3v168H0z"/><path class="st1" d="M-30.7 6.3h215v170h-215z"/><path class="st1" d="M-30.7 6.3h215v170h-215z"/><g stroke-linejoin="round"><path d="M45.1 8.4c37.5-17.5 82.2-1.3 99.7 36.3 16 34.2 4 75-28 95.1l-20-31.7c17.5-11.1 22.8-34.2 11.7-51.7-10.1-16-30.4-22-47.6-14l-15.8-34z" stroke="#000" transform="translate(0 15)"/><path d="M116.8 139.8c-35.1 22.1-81.4 11.5-103.4-23.5C6.7 105.6 2.7 93.4 2 80.9l37.4-2.3c1.3 20.7 19 36.4 39.7 35.2 6.3-.4 12.4-2.3 17.7-5.7l20 31.7z" fill="#4a7628" stroke="#4a7628" transform="translate(0 15)"/><path d="M2 80.8C1 65 5.1 49.3 13.6 36l31.6 20.2a37 37 0 0 0-5.8 22.4L2 80.8z" fill="#bfd916" stroke="#bfd916" transform="translate(0 15)"/><path d="M13.7 35.9c7.7-12 18.5-21.5 31.4-27.5l15.9 34c-6.4 3-11.9 7.8-15.7 13.8L13.7 35.9z" fill="#6d6d6d" stroke="#6d6d6d" transform="translate(0 15)"/></g><text transform="translate(113.333 72.333)" class="st0 st6 st7">48%</text><text transform="translate(37.333 150.333)" class="st0 st6 st7">33%</text><text transform="translate(8.333 85.333)" class="st0 st6 st7">10%</text><text transform="translate(29.333 56.333)" class="st0 st6 st7">9%</text></svg>