<svg id="Layer_1" xmlns="http://www.w3.org/2000/svg" width="158.7" height="168"><style>.st0{fill:#fff}.st1{fill:none}.st6{font-family:&apos;LucidaGrande&apos;,Helvetica,Arial,sans-serif}.st7{font-size:13px}</style><path class="st0" d="M0 0h158.7v168H0z"/><path class="st1" d="M-8.3-.7h175v180h-175z"/><path class="st1" d="M-8.3-.7h175v180h-175z"/><g stroke-linejoin="round"><path d="M46.4 4.1C83.1-13 126.7 1 146.6 36.2l-33.7 19.1c-10-17.6-31.8-24.6-50.1-16L46.4 4.1z" stroke="#000" transform="translate(0 15)"/><path d="M146.7 36.2c21 37.3 7.9 84.5-29.4 105.6-3.8 2.2-7.8 4-12 5.5l-13.1-36.5c20.1-7.2 30.6-29.4 23.4-49.5-.7-2.1-1.7-4.1-2.7-6l33.8-19.1z" fill="#4a7628" stroke="#4a7628" transform="translate(0 15)"/><path d="M105.2 147.3c-40.3 14.4-84.7-6.6-99-46.9-5.3-14.9-6-31-1.9-46.2l37.4 10.1c-5.6 20.7 6.7 41.9 27.4 47.5 7.6 2 15.7 1.7 23.1-.9l13 36.4z" fill="#bfd916" stroke="#bfd916" transform="translate(0 15)"/><path d="M4.3 54.2c5.9-22 21.3-40.4 42-50l16.4 35.1c-10.3 4.8-18 14-21 25L4.3 54.2z" fill="#6d6d6d" stroke="#6d6d6d" transform="translate(0 15)"/></g><text transform="translate(83.667 40.333)" class="st0 st6 st7">24%</text><text transform="translate(121.667 118.333)" class="st0 st6 st7">28%</text><text transform="translate(24.667 141.333)" class="st0 st6 st7">35%</text><text transform="translate(19.667 59.333)" class="st0 st6 st7">14%</text></svg>