<svg id="Layer_1" xmlns="http://www.w3.org/2000/svg" width="153.3" height="168"><style>.st0{fill:#fff}.st1{fill:none}.st6{font-family:&apos;LucidaGrande&apos;,Helvetica,Arial,sans-serif}.st7{font-size:13px}</style><path class="st0" d="M0 0h153.3v168H0z"/><path class="st1" d="M-31.3 6h216v170h-216z"/><path class="st1" d="M-31.3 6h216v170h-216z"/><g stroke-linejoin="round"><path d="M45 8c7-3.3 14.5-5.4 22.2-6.4l4.7 37.2c-3.9.5-7.6 1.6-11.1 3.2L45 8z" stroke="#000" transform="translate(0 15)"/><path d="M67.3 1.6c21.9-2.8 44 4.3 60.2 19.3l-25.4 27.6C94 41 83 37.5 72 38.9L67.3 1.6z" fill="#4a7628" stroke="#4a7628" transform="translate(0 15)"/><path d="M127.6 20.9c30.4 28.1 32.3 75.6 4.2 106s-75.6 32.3-106 4.2-32.3-75.6-4.2-106c1.3-1.4 2.7-2.8 4.1-4.1l25.5 27.5c-15.2 14.1-16.1 37.8-2 53s37.8 16.1 53 2 16.1-37.8 2-53c-.7-.7-1.3-1.4-2-2l25.4-27.6z" fill="#bfd916" stroke="#bfd916" transform="translate(0 15)"/><path d="M25.7 21c5.7-5.3 12.2-9.6 19.2-12.9l15.9 34c-3.5 1.6-6.8 3.8-9.6 6.5L25.7 21z" fill="#6d6d6d" stroke="#6d6d6d" transform="translate(0 15)"/></g><text transform="translate(47.667 12)" class="st6 st7">5%</text><text transform="translate(80.667 51)" class="st0 st6 st7">14%</text><text transform="translate(62.667 162)" class="st0 st6 st7">77%</text><text transform="translate(17.667 24)" class="st6 st7">5%</text></svg>