<svg id="Layer_1" xmlns="http://www.w3.org/2000/svg" width="155" height="168"><style>.st0{fill:#fff}.st1{fill:none}.st6{font-family:&apos;LucidaGrande&apos;,Helvetica,Arial,sans-serif}.st7{font-size:13px}</style><path class="st0" d="M-1 0h157v168H-1z"/><path class="st1" d="M-10 .5h175v180H-10z"/><path class="st1" d="M-10 .5h175v180H-10z"/><g stroke-linejoin="round"><path d="M44.8 5.3c38.8-18.1 84.9-1.3 103 37.5.7 1.4 1.3 2.9 1.9 4.4l-36.1 14.2c-7.8-19.9-30.3-29.7-50.3-21.9-.7.3-1.5.6-2.2.9L44.8 5.3z" stroke="#000" transform="translate(0 15)"/><path d="M149.6 47.2c12.9 32.9 1.9 70.4-26.7 91.1l-22.7-31.4c14.3-10.4 19.8-29.1 13.4-45.6l36-14.1z" fill="#4a7628" stroke="#4a7628" transform="translate(0 15)"/><path d="M122.8 138.4c-34.7 25-83.2 17.2-108.2-17.5C-2.9 96.5-4.8 64.2 9.7 38l33.9 18.8C33.2 75.5 40 99 58.7 109.4c13.1 7.3 29.3 6.3 41.4-2.5l22.7 31.5z" fill="#bfd916" stroke="#bfd916" transform="translate(0 15)"/><path d="M9.7 37.9c7.9-14.3 20.2-25.7 34.9-32.6L61 40.4c-7.4 3.5-13.5 9.2-17.5 16.3L9.7 37.9z" fill="#6d6d6d" stroke="#6d6d6d" transform="translate(0 15)"/></g><text transform="translate(86 43.5)" class="st0 st6 st7">26%</text><text transform="translate(121 115.5)" class="st0 st6 st7">21%</text><text transform="translate(24 142.5)" class="st0 st6 st7">43%</text><text transform="translate(23 54.5)" class="st0 st6 st7">10%</text></svg>