<svg id="Layer_1" xmlns="http://www.w3.org/2000/svg" width="157.5" height="169.2"><style>.st0{fill:#fff}.st1{fill:none}.st6{font-family:&apos;LucidaGrande&apos;,Helvetica,Arial,sans-serif}.st7{font-size:13px}</style><path class="st0" d="M0 0h157.5v169.2H0z"/><path class="st1" d="M-8.8.5h175v180h-175z"/><path class="st1" d="M-8.8.5h175v180h-175z"/><g stroke-linejoin="round"><path d="M46 5.2c20.9-9.8 45.1-9.7 66 .2l-16.6 35c-10.4-4.9-22.5-5-33-.1L46 5.2z" stroke="#000" transform="translate(0 15)"/><path d="M112.1 5.5c38.7 18.4 55.1 64.6 36.7 103.3s-64.6 55.1-103.3 36.7c-10.3-4.9-19.3-12-26.6-20.7l29.9-24.6c13.6 16.5 38 18.9 54.5 5.3s18.9-38 5.3-54.5c-3.6-4.4-8.1-7.9-13.3-10.4l16.8-35.1z" fill="#4a7628" stroke="#4a7628" transform="translate(0 15)"/><path d="M18.9 124.7c-20.2-24.6-23.3-58.9-8-86.7l33.9 18.8c-7.7 13.9-6.1 31.1 4 43.4l-29.9 24.5z" fill="#bfd916" stroke="#bfd916" transform="translate(0 15)"/><path d="M10.9 37.9c7.9-14.3 20.2-25.7 34.9-32.6l16.4 35.1c-7.4 3.5-13.5 9.2-17.5 16.3L10.9 37.9z" fill="#6d6d6d" stroke="#6d6d6d" transform="translate(0 15)"/></g><text transform="translate(65.25 39.482)" class="st0 st6 st7">14%</text><text transform="translate(112.25 135.482)" class="st0 st6 st7">57%</text><text transform="translate(6.25 103.482)" class="st0 st6 st7">19%</text><text transform="translate(24.25 54.482)" class="st0 st6 st7">10%</text></svg>